# xmcd CD database file
#
# Track frame offsets:
#	182
#	34892
#	86222
#	146725
#	183965
#	245047
#	279012
#
# Disc length: 3759 seconds
#
# Revision: 1
# Processed by: cddbd v1.5.2PL0 Copyright (c) Steve Scherf et al.
# Submitted via: CDex 1.98
#
DISCID=600ead07
DTITLE=Jamey Aebersold - Volume 68- "Giant Steps
DYEAR=1995
DGENRE=Jazz
TTITLE0=Confirmation
TTITLE1=Stella by Starlight
TTITLE2=It's You or No One
TTITLE3=All the Things You Are
TTITLE4=This I Dig
TTITLE5=Giant Steps
TTITLE6=Tuning Notes
EXTD=Mark Levine- Piano\nLynn Seaton (tracks 4,5,6)/ Todd Coolman (all other tracks)- Bass\nBarry Ries- Drums YEAR: 1995
EXTT0=
EXTT1=
EXTT2=
EXTT3=
EXTT4=
EXTT5=
EXTT6=
PLAYORDER=
